M48
; DRILL file {KiCad 8.0.4} date 2025-02-19T19:22:48+0100
; FORMAT={-:-/ absolute / metric / decimal}
; #@! TF.CreationDate,2025-02-19T19:22:48+01:00
; #@! TF.GenerationSoftware,Kicad,Pcbnew,8.0.4
; #@! TF.FileFunction,Plated,1,2,PTH
FMAT,2
METRIC
; #@! TA.AperFunction,Plated,PTH,ViaDrill
T1C0.300
; #@! TA.AperFunction,Plated,PTH,ComponentDrill
T2C0.600
; #@! TA.AperFunction,Plated,PTH,ViaDrill
T3C0.800
; #@! TA.AperFunction,Plated,PTH,ViaDrill
T4C1.000
; #@! TA.AperFunction,Plated,PTH,ComponentDrill
T5C1.000
; #@! TA.AperFunction,Plated,PTH,ComponentDrill
T6C1.020
; #@! TA.AperFunction,Plated,PTH,ComponentDrill
T7C1.300
; #@! TA.AperFunction,Plated,PTH,ComponentDrill
T8C1.350
; #@! TA.AperFunction,Plated,PTH,ComponentDrill
T9C1.570
; #@! TA.AperFunction,Plated,PTH,ComponentDrill
T10C1.600
; #@! TA.AperFunction,Plated,PTH,ComponentDrill
T11C1.700
; #@! TA.AperFunction,Plated,PTH,ComponentDrill
T12C1.900
; #@! TA.AperFunction,Plated,PTH,ComponentDrill
T13C2.700
%
G90
G05
T1
X42.898Y-51.4
X44.2Y-91.7
X50.9Y-50.4
X51.8Y-50.5
X52.5Y-135.7
X54.1Y-101.5
X72.1Y-100.2
X73.3Y-100.85
X77.5Y-46.1
X78.0Y-65.8
X78.7Y-100.2
X79.699Y-50.913
X80.2Y-100.8
X88.212Y-58.121
X99.0Y-58.121
X102.645Y-49.223
X108.0Y-67.2
X110.0Y-97.5
X115.1Y-87.8
X116.657Y-35.432
X119.921Y-63.148
X121.5Y-101.5
X123.3Y-82.5
X125.7Y-87.8
X129.228Y-72.455
X134.4Y-91.8
X141.0Y-108.8
X142.2Y-119.0
X144.7Y-119.0
X158.391Y-72.575
X179.17Y-48.797
X182.8Y-50.2
X183.2Y-51.4
X231.8Y-50.0
X248.5Y-49.4
X248.84Y-50.7
X257.25Y-58.0
X257.9Y-54.388
X258.8Y-88.0
T3
X67.8Y-50.9
X77.1Y-50.8
X105.3Y-50.886
X110.419Y-50.886
X117.382Y-58.475
X120.348Y-60.68
X128.403Y-74.341
X141.9Y-107.8
X154.4Y-110.3
X159.0Y-110.3
X168.391Y-91.393
X205.855Y-110.37
X227.3Y-118.75
T4
X57.6Y-68.4
X98.7Y-78.3
X188.2Y-78.3
X254.1Y-69.0
T5
X165.7Y-147.15
X176.7Y-147.15
T6
X140.963Y-113.35
X140.963Y-116.2
X143.546Y-113.35
X143.546Y-116.2
X146.13Y-113.35
X146.13Y-116.2
X148.713Y-113.35
X148.713Y-116.2
X151.313Y-113.35
X151.313Y-116.2
X153.896Y-113.35
X153.896Y-116.2
X156.48Y-113.35
X156.48Y-116.2
X159.063Y-113.35
X159.063Y-116.2
T7
X38.0Y-70.6
X38.0Y-74.41
X38.0Y-78.22
X38.0Y-82.03
X38.0Y-85.84
X38.0Y-120.5
X38.0Y-124.31
X38.0Y-128.12
X38.0Y-131.93
X38.0Y-135.74
X72.14Y-38.2
X75.95Y-38.2
X79.76Y-38.2
X83.57Y-38.2
X87.38Y-38.2
X91.19Y-38.2
X95.0Y-38.2
X184.11Y-38.2
X187.92Y-38.2
X191.73Y-38.2
X195.54Y-38.2
X199.35Y-38.2
X203.16Y-38.2
X206.97Y-38.2
X210.78Y-38.2
X214.59Y-38.2
X218.4Y-38.2
X226.5Y-38.2
X230.31Y-38.2
X234.12Y-38.2
X237.93Y-38.2
X241.74Y-38.2
X245.55Y-38.2
X262.0Y-70.56
X262.0Y-74.37
X262.0Y-78.18
X262.0Y-81.99
X262.0Y-85.8
X262.0Y-120.46
X262.0Y-124.27
X262.0Y-128.08
X262.0Y-131.89
X262.0Y-135.7
T8
X53.2Y-38.2
X57.01Y-38.2
X60.82Y-38.2
X64.63Y-38.2
X102.0Y-38.2
X105.81Y-38.2
X112.6Y-38.2
X116.41Y-38.2
X123.79Y-141.65
X127.6Y-141.65
X135.99Y-141.65
X139.8Y-141.65
X148.17Y-141.65
X151.98Y-141.65
X155.79Y-141.65
X159.6Y-141.65
T9
X128.19Y-43.19
X128.19Y-45.73
X128.19Y-48.27
X128.19Y-50.81
X130.73Y-43.19
X130.73Y-50.81
X133.27Y-43.19
X133.27Y-50.81
X135.81Y-43.19
X135.81Y-45.73
X135.81Y-48.27
X135.81Y-50.81
X164.19Y-43.19
X164.19Y-45.73
X164.19Y-48.27
X164.19Y-50.81
X166.73Y-43.19
X166.73Y-50.81
X169.27Y-43.19
X169.27Y-50.81
X171.81Y-43.19
X171.81Y-45.73
X171.81Y-48.27
X171.81Y-50.81
T10
X83.96Y-123.75
X83.96Y-126.25
X87.46Y-123.75
X87.46Y-126.25
X92.54Y-123.75
X92.54Y-126.25
X96.04Y-123.75
X96.04Y-126.25
X183.96Y-123.75
X183.96Y-126.25
X187.46Y-123.75
X187.46Y-126.25
X192.54Y-123.75
X192.54Y-126.25
X196.04Y-123.75
X196.04Y-126.25
X213.96Y-123.75
X213.96Y-126.25
X217.46Y-123.75
X217.46Y-126.25
X222.54Y-123.75
X222.54Y-126.25
X226.04Y-123.75
X226.04Y-126.25
T11
X168.7Y-142.15
X173.7Y-142.15
T12
X127.763Y-79.5
X127.763Y-105.5
X137.013Y-70.5
X137.013Y-114.5
X146.413Y-62.5
X146.413Y-65.0
X153.613Y-62.5
X153.613Y-65.0
X163.013Y-70.5
X163.013Y-114.5
X172.263Y-79.5
X172.263Y-105.5
T13
X46.4Y-54.8
X46.4Y-62.0
X46.4Y-104.8
X46.4Y-112.0
X253.6Y-54.8
X253.6Y-62.0
X253.6Y-104.8
X253.6Y-112.0
T2
X40.95Y-51.65G85X39.85Y-51.65
G05
X40.95Y-65.15G85X39.85Y-65.15
G05
X40.95Y-101.65G85X39.85Y-101.65
G05
X40.95Y-115.15G85X39.85Y-115.15
G05
X259.05Y-51.65G85X260.15Y-51.65
G05
X259.05Y-65.15G85X260.15Y-65.15
G05
X259.05Y-101.65G85X260.15Y-101.65
G05
X259.05Y-115.15G85X260.15Y-115.15
G05
M30
