G04 #@! TF.GenerationSoftware,KiCad,Pcbnew,8.0.4*
G04 #@! TF.CreationDate,2025-02-19T19:20:14+01:00*
G04 #@! TF.ProjectId,Quiver_PDB_01,51756976-6572-45f5-9044-425f30312e6b,rev?*
G04 #@! TF.SameCoordinates,Original*
G04 #@! TF.FileFunction,Legend,Bot*
G04 #@! TF.FilePolarity,Positive*
%FSLAX46Y46*%
G04 Gerber Fmt 4.6, Leading zero omitted, Abs format (unit mm)*
G04 Created by KiCad (PCBNEW 8.0.4) date 2025-02-19 19:20:14*
%MOMM*%
%LPD*%
G01*
G04 APERTURE LIST*
G04 Aperture macros list*
%AMRoundRect*
0 Rectangle with rounded corners*
0 $1 Rounding radius*
0 $2 $3 $4 $5 $6 $7 $8 $9 X,Y pos of 4 corners*
0 Add a 4 corners polygon primitive as box body*
4,1,4,$2,$3,$4,$5,$6,$7,$8,$9,$2,$3,0*
0 Add four circle primitives for the rounded corners*
1,1,$1+$1,$2,$3*
1,1,$1+$1,$4,$5*
1,1,$1+$1,$6,$7*
1,1,$1+$1,$8,$9*
0 Add four rect primitives between the rounded corners*
20,1,$1+$1,$2,$3,$4,$5,0*
20,1,$1+$1,$4,$5,$6,$7,0*
20,1,$1+$1,$6,$7,$8,$9,0*
20,1,$1+$1,$8,$9,$2,$3,0*%
G04 Aperture macros list end*
%ADD10C,0.150000*%
%ADD11C,0.127000*%
%ADD12C,0.100000*%
%ADD13C,2.650000*%
%ADD14C,2.400000*%
%ADD15C,3.054000*%
%ADD16RoundRect,0.102000X1.200000X1.200000X-1.200000X1.200000X-1.200000X-1.200000X1.200000X-1.200000X0*%
%ADD17C,1.550000*%
%ADD18R,1.950000X1.950000*%
%ADD19C,1.950000*%
%ADD20R,2.025000X2.025000*%
%ADD21C,2.025000*%
%ADD22C,5.000000*%
%ADD23C,2.300000*%
%ADD24C,2.754000*%
%ADD25RoundRect,0.102000X1.275000X1.275000X-1.275000X1.275000X-1.275000X-1.275000X1.275000X-1.275000X0*%
%ADD26C,1.712000*%
%ADD27RoundRect,0.102000X-1.858000X1.858000X-1.858000X-1.858000X1.858000X-1.858000X1.858000X1.858000X0*%
%ADD28C,3.920000*%
%ADD29O,2.604000X1.404000*%
%ADD30RoundRect,0.102000X1.858000X-1.858000X1.858000X1.858000X-1.858000X1.858000X-1.858000X-1.858000X0*%
G04 APERTURE END LIST*
D10*
X35454583Y-57590119D02*
X36169183Y-57590119D01*
X36169183Y-57590119D02*
X36312103Y-57542479D01*
X36312103Y-57542479D02*
X36407384Y-57447199D01*
X36407384Y-57447199D02*
X36455024Y-57304279D01*
X36455024Y-57304279D02*
X36455024Y-57208999D01*
X36455024Y-58590560D02*
X36455024Y-58018880D01*
X36455024Y-58304720D02*
X35454583Y-58304720D01*
X35454583Y-58304720D02*
X35597503Y-58209440D01*
X35597503Y-58209440D02*
X35692783Y-58114160D01*
X35692783Y-58114160D02*
X35740423Y-58018880D01*
X35788063Y-59448081D02*
X36455024Y-59448081D01*
X35406943Y-59209881D02*
X36121543Y-58971681D01*
X36121543Y-58971681D02*
X36121543Y-59591001D01*
X265054583Y-57590119D02*
X265769183Y-57590119D01*
X265769183Y-57590119D02*
X265912103Y-57542479D01*
X265912103Y-57542479D02*
X266007384Y-57447199D01*
X266007384Y-57447199D02*
X266055024Y-57304279D01*
X266055024Y-57304279D02*
X266055024Y-57208999D01*
X266055024Y-58590560D02*
X266055024Y-58018880D01*
X266055024Y-58304720D02*
X265054583Y-58304720D01*
X265054583Y-58304720D02*
X265197503Y-58209440D01*
X265197503Y-58209440D02*
X265292783Y-58114160D01*
X265292783Y-58114160D02*
X265340423Y-58018880D01*
X265054583Y-59448081D02*
X265054583Y-59257521D01*
X265054583Y-59257521D02*
X265102223Y-59162241D01*
X265102223Y-59162241D02*
X265149863Y-59114601D01*
X265149863Y-59114601D02*
X265292783Y-59019321D01*
X265292783Y-59019321D02*
X265483343Y-58971681D01*
X265483343Y-58971681D02*
X265864463Y-58971681D01*
X265864463Y-58971681D02*
X265959743Y-59019321D01*
X265959743Y-59019321D02*
X266007384Y-59066961D01*
X266007384Y-59066961D02*
X266055024Y-59162241D01*
X266055024Y-59162241D02*
X266055024Y-59352801D01*
X266055024Y-59352801D02*
X266007384Y-59448081D01*
X266007384Y-59448081D02*
X265959743Y-59495721D01*
X265959743Y-59495721D02*
X265864463Y-59543361D01*
X265864463Y-59543361D02*
X265626263Y-59543361D01*
X265626263Y-59543361D02*
X265530983Y-59495721D01*
X265530983Y-59495721D02*
X265483343Y-59448081D01*
X265483343Y-59448081D02*
X265435703Y-59352801D01*
X265435703Y-59352801D02*
X265435703Y-59162241D01*
X265435703Y-59162241D02*
X265483343Y-59066961D01*
X265483343Y-59066961D02*
X265530983Y-59019321D01*
X265530983Y-59019321D02*
X265626263Y-58971681D01*
X262954583Y-107690119D02*
X263669183Y-107690119D01*
X263669183Y-107690119D02*
X263812103Y-107642479D01*
X263812103Y-107642479D02*
X263907384Y-107547199D01*
X263907384Y-107547199D02*
X263955024Y-107404279D01*
X263955024Y-107404279D02*
X263955024Y-107308999D01*
X263955024Y-108690560D02*
X263955024Y-108118880D01*
X263955024Y-108404720D02*
X262954583Y-108404720D01*
X262954583Y-108404720D02*
X263097503Y-108309440D01*
X263097503Y-108309440D02*
X263192783Y-108214160D01*
X263192783Y-108214160D02*
X263240423Y-108118880D01*
X262954583Y-109024041D02*
X262954583Y-109691001D01*
X262954583Y-109691001D02*
X263955024Y-109262241D01*
X35154583Y-107590119D02*
X35869183Y-107590119D01*
X35869183Y-107590119D02*
X36012103Y-107542479D01*
X36012103Y-107542479D02*
X36107384Y-107447199D01*
X36107384Y-107447199D02*
X36155024Y-107304279D01*
X36155024Y-107304279D02*
X36155024Y-107208999D01*
X36155024Y-108590560D02*
X36155024Y-108018880D01*
X36155024Y-108304720D02*
X35154583Y-108304720D01*
X35154583Y-108304720D02*
X35297503Y-108209440D01*
X35297503Y-108209440D02*
X35392783Y-108114160D01*
X35392783Y-108114160D02*
X35440423Y-108018880D01*
X35154583Y-109495721D02*
X35154583Y-109019321D01*
X35154583Y-109019321D02*
X35630983Y-108971681D01*
X35630983Y-108971681D02*
X35583343Y-109019321D01*
X35583343Y-109019321D02*
X35535703Y-109114601D01*
X35535703Y-109114601D02*
X35535703Y-109352801D01*
X35535703Y-109352801D02*
X35583343Y-109448081D01*
X35583343Y-109448081D02*
X35630983Y-109495721D01*
X35630983Y-109495721D02*
X35726263Y-109543361D01*
X35726263Y-109543361D02*
X35964463Y-109543361D01*
X35964463Y-109543361D02*
X36059743Y-109495721D01*
X36059743Y-109495721D02*
X36107384Y-109448081D01*
X36107384Y-109448081D02*
X36155024Y-109352801D01*
X36155024Y-109352801D02*
X36155024Y-109114601D01*
X36155024Y-109114601D02*
X36107384Y-109019321D01*
X36107384Y-109019321D02*
X36059743Y-108971681D01*
D11*
X30050000Y-50650000D02*
X30050000Y-66150000D01*
X30050000Y-66150000D02*
X44600000Y-66150000D01*
X44600000Y-50650000D02*
X30050000Y-50650000D01*
X255400000Y-66150000D02*
X269950000Y-66150000D01*
X269950000Y-50650000D02*
X255400000Y-50650000D01*
X269950000Y-66150000D02*
X269950000Y-50650000D01*
X255400000Y-116150000D02*
X269950000Y-116150000D01*
X269950000Y-100650000D02*
X255400000Y-100650000D01*
X269950000Y-116150000D02*
X269950000Y-100650000D01*
X30050000Y-100650000D02*
X30050000Y-116150000D01*
X30050000Y-116150000D02*
X44600000Y-116150000D01*
X44600000Y-100650000D02*
X30050000Y-100650000D01*
%LPC*%
D12*
X50100000Y-112800000D02*
X137200000Y-112800000D01*
X137200000Y-116200000D01*
X48700000Y-116200000D01*
X45200000Y-113400000D01*
X47900000Y-110600000D01*
X50100000Y-112800000D01*
G36*
X50100000Y-112800000D02*
G01*
X137200000Y-112800000D01*
X137200000Y-116200000D01*
X48700000Y-116200000D01*
X45200000Y-113400000D01*
X47900000Y-110600000D01*
X50100000Y-112800000D01*
G37*
X251800000Y-56800000D02*
X178900000Y-56800000D01*
X164000000Y-71600000D01*
X161900000Y-69500000D01*
X178500000Y-52800000D01*
X251800000Y-52800000D01*
X251800000Y-56800000D01*
G36*
X251800000Y-56800000D02*
G01*
X178900000Y-56800000D01*
X164000000Y-71600000D01*
X161900000Y-69500000D01*
X178500000Y-52800000D01*
X251800000Y-52800000D01*
X251800000Y-56800000D01*
G37*
X255000000Y-113400000D02*
X251500000Y-116200000D01*
X163000000Y-116200000D01*
X163000000Y-112800000D01*
X250100000Y-112800000D01*
X252300000Y-110600000D01*
X255000000Y-113400000D01*
G36*
X255000000Y-113400000D02*
G01*
X251500000Y-116200000D01*
X163000000Y-116200000D01*
X163000000Y-112800000D01*
X250100000Y-112800000D01*
X252300000Y-110600000D01*
X255000000Y-113400000D01*
G37*
X128902037Y-78597963D02*
X126802037Y-80697963D01*
X110102037Y-63897963D01*
X46502037Y-63997963D01*
X46502037Y-59997963D01*
X110502037Y-59897963D01*
X128902037Y-78597963D01*
G36*
X128902037Y-78597963D02*
G01*
X126802037Y-80697963D01*
X110102037Y-63897963D01*
X46502037Y-63997963D01*
X46502037Y-59997963D01*
X110502037Y-59897963D01*
X128902037Y-78597963D01*
G37*
X251700000Y-106700000D02*
X173100000Y-106700000D01*
X171600000Y-104100000D01*
X173400000Y-103100000D01*
X251700000Y-103100000D01*
X251700000Y-106700000D01*
G36*
X251700000Y-106700000D02*
G01*
X173100000Y-106700000D01*
X171600000Y-104100000D01*
X173400000Y-103100000D01*
X251700000Y-103100000D01*
X251700000Y-106700000D01*
G37*
X166200000Y-51800000D02*
X165138118Y-53229091D01*
X154838118Y-63529091D01*
X152300000Y-61329091D01*
X163938118Y-49229091D01*
X166200000Y-49229091D01*
X166200000Y-51800000D01*
G36*
X166200000Y-51800000D02*
G01*
X165138118Y-53229091D01*
X154838118Y-63529091D01*
X152300000Y-61329091D01*
X163938118Y-49229091D01*
X166200000Y-49229091D01*
X166200000Y-51800000D01*
G37*
X128500000Y-104200000D02*
X127100000Y-106600000D01*
X46300000Y-106600000D01*
X46300000Y-103000000D01*
X126700000Y-103000000D01*
X128500000Y-104200000D01*
G36*
X128500000Y-104200000D02*
G01*
X127100000Y-106600000D01*
X46300000Y-106600000D01*
X46300000Y-103000000D01*
X126700000Y-103000000D01*
X128500000Y-104200000D01*
G37*
X147700000Y-61300000D02*
X145100000Y-63500000D01*
X134800000Y-53200000D01*
X133700000Y-51800000D01*
X133700000Y-49300000D01*
X136200000Y-49300000D01*
X147700000Y-61300000D01*
G36*
X147700000Y-61300000D02*
G01*
X145100000Y-63500000D01*
X134800000Y-53200000D01*
X133700000Y-51800000D01*
X133700000Y-49300000D01*
X136200000Y-49300000D01*
X147700000Y-61300000D01*
G37*
X253500000Y-60000000D02*
X253500000Y-64000000D01*
X189900000Y-63900000D01*
X173200000Y-80700000D01*
X171100000Y-78600000D01*
X189500000Y-59900000D01*
X253500000Y-60000000D01*
G36*
X253500000Y-60000000D02*
G01*
X253500000Y-64000000D01*
X189900000Y-63900000D01*
X173200000Y-80700000D01*
X171100000Y-78600000D01*
X189500000Y-59900000D01*
X253500000Y-60000000D01*
G37*
X138102037Y-69497963D02*
X136002037Y-71597963D01*
X121102037Y-56797963D01*
X46602037Y-56897963D01*
X46602037Y-52897963D01*
X121502037Y-52797963D01*
X138102037Y-69497963D01*
G36*
X138102037Y-69497963D02*
G01*
X136002037Y-71597963D01*
X121102037Y-56797963D01*
X46602037Y-56897963D01*
X46602037Y-52897963D01*
X121502037Y-52797963D01*
X138102037Y-69497963D01*
G37*
D13*
X190000000Y-124955000D03*
D14*
X183960000Y-123750000D03*
X183960000Y-126250000D03*
X187460000Y-123750000D03*
X187460000Y-126250000D03*
X192540000Y-123750000D03*
X192540000Y-126250000D03*
X196040000Y-123750000D03*
X196040000Y-126250000D03*
D15*
X137012882Y-70500000D03*
X127762882Y-79500000D03*
X127762882Y-105500000D03*
X137012882Y-114500000D03*
X172262882Y-79500000D03*
X163012882Y-70500000D03*
X163012882Y-114500000D03*
X172262882Y-105500000D03*
D16*
X153612882Y-65000000D03*
X153612882Y-62500000D03*
X146412882Y-65000000D03*
X146412882Y-62500000D03*
D17*
X140962882Y-113350000D03*
X140962882Y-116200000D03*
X143546215Y-113350000D03*
X143546215Y-116200000D03*
X146129549Y-113350000D03*
X146129549Y-116200000D03*
X148712882Y-113350000D03*
X148712882Y-116200000D03*
X151312882Y-113350000D03*
X151312882Y-116200000D03*
X153896215Y-113350000D03*
X153896215Y-116200000D03*
X156479549Y-113350000D03*
X156479549Y-116200000D03*
X159062882Y-113350000D03*
X159062882Y-116200000D03*
D13*
X220000000Y-125045000D03*
D14*
X226040000Y-126250000D03*
X226040000Y-123750000D03*
X222540000Y-126250000D03*
X222540000Y-123750000D03*
X217460000Y-126250000D03*
X217460000Y-123750000D03*
X213960000Y-126250000D03*
X213960000Y-123750000D03*
D18*
X262000000Y-85800000D03*
D19*
X262000000Y-81990000D03*
X262000000Y-78180000D03*
X262000000Y-74370000D03*
X262000000Y-70560000D03*
D18*
X245550000Y-38200000D03*
D19*
X241740000Y-38200000D03*
X237930000Y-38200000D03*
X234120000Y-38200000D03*
X230310000Y-38200000D03*
X226500000Y-38200000D03*
D20*
X112600000Y-38200000D03*
D21*
X116410000Y-38200000D03*
D18*
X262000000Y-135700000D03*
D19*
X262000000Y-131890000D03*
X262000000Y-128080000D03*
X262000000Y-124270000D03*
X262000000Y-120460000D03*
D22*
X132000000Y-47000000D03*
D23*
X128190000Y-50810000D03*
X130730000Y-50810000D03*
X133270000Y-50810000D03*
X135810000Y-50810000D03*
X135810000Y-48270000D03*
X135810000Y-45730000D03*
X135810000Y-43190000D03*
X133270000Y-43190000D03*
X130730000Y-43190000D03*
X128190000Y-43190000D03*
X128190000Y-45730000D03*
X128190000Y-48270000D03*
D22*
X168000000Y-47000000D03*
D23*
X164190000Y-50810000D03*
X166730000Y-50810000D03*
X169270000Y-50810000D03*
X171810000Y-50810000D03*
X171810000Y-48270000D03*
X171810000Y-45730000D03*
X171810000Y-43190000D03*
X169270000Y-43190000D03*
X166730000Y-43190000D03*
X164190000Y-43190000D03*
X164190000Y-45730000D03*
X164190000Y-48270000D03*
D20*
X53200000Y-38200000D03*
D21*
X57010000Y-38200000D03*
X60820000Y-38200000D03*
X64630000Y-38200000D03*
D24*
X173700000Y-142150000D03*
D25*
X168700000Y-142150000D03*
D26*
X165700000Y-147150000D03*
X176700000Y-147150000D03*
D13*
X90000000Y-125045000D03*
D14*
X96040000Y-126250000D03*
X96040000Y-123750000D03*
X92540000Y-126250000D03*
X92540000Y-123750000D03*
X87460000Y-126250000D03*
X87460000Y-123750000D03*
X83960000Y-126250000D03*
X83960000Y-123750000D03*
D20*
X139800000Y-141650000D03*
D21*
X135990000Y-141650000D03*
D18*
X38000000Y-120500000D03*
D19*
X38000000Y-124310000D03*
X38000000Y-128120000D03*
X38000000Y-131930000D03*
X38000000Y-135740000D03*
D20*
X159600000Y-141650000D03*
D21*
X155790000Y-141650000D03*
X151980000Y-141650000D03*
X148170000Y-141650000D03*
D18*
X95000000Y-38200000D03*
D19*
X91190000Y-38200000D03*
X87380000Y-38200000D03*
X83570000Y-38200000D03*
X79760000Y-38200000D03*
X75950000Y-38200000D03*
X72140000Y-38200000D03*
D20*
X102000000Y-38200000D03*
D21*
X105810000Y-38200000D03*
D18*
X218400000Y-38200000D03*
D19*
X214590000Y-38200000D03*
X210780000Y-38200000D03*
X206970000Y-38200000D03*
X203160000Y-38200000D03*
X199350000Y-38200000D03*
X195540000Y-38200000D03*
X191730000Y-38200000D03*
X187920000Y-38200000D03*
X184110000Y-38200000D03*
D20*
X127600000Y-141650000D03*
D21*
X123790000Y-141650000D03*
D18*
X38000000Y-70600000D03*
D19*
X38000000Y-74410000D03*
X38000000Y-78220000D03*
X38000000Y-82030000D03*
X38000000Y-85840000D03*
D27*
X46400000Y-62000000D03*
D28*
X46400000Y-54800000D03*
D29*
X40400000Y-65150000D03*
X40400000Y-51650000D03*
D30*
X253600000Y-54800000D03*
D28*
X253600000Y-62000000D03*
D29*
X259600000Y-51650000D03*
X259600000Y-65150000D03*
D30*
X253600000Y-104800000D03*
D28*
X253600000Y-112000000D03*
D29*
X259600000Y-101650000D03*
X259600000Y-115150000D03*
D27*
X46400000Y-112000000D03*
D28*
X46400000Y-104800000D03*
D29*
X40400000Y-115150000D03*
X40400000Y-101650000D03*
%LPD*%
M02*
