G04 #@! TF.GenerationSoftware,KiCad,Pcbnew,8.0.4*
G04 #@! TF.CreationDate,2025-02-19T19:20:14+01:00*
G04 #@! TF.ProjectId,Quiver_PDB_01,51756976-6572-45f5-9044-425f30312e6b,rev?*
G04 #@! TF.SameCoordinates,Original*
G04 #@! TF.FileFunction,Profile,NP*
%FSLAX46Y46*%
G04 Gerber Fmt 4.6, Leading zero omitted, Abs format (unit mm)*
G04 Created by KiCad (PCBNEW 8.0.4) date 2025-02-19 19:20:14*
%MOMM*%
%LPD*%
G01*
G04 APERTURE LIST*
G04 #@! TA.AperFunction,Profile*
%ADD10C,0.050000*%
G04 #@! TD*
G04 #@! TA.AperFunction,Profile*
%ADD11C,0.120000*%
G04 #@! TD*
G04 APERTURE END LIST*
D10*
X241600000Y-130000000D02*
G75*
G02*
X238400000Y-130000000I-1600000J0D01*
G01*
X238400000Y-130000000D02*
G75*
G02*
X241600000Y-130000000I1600000J0D01*
G01*
X260000000Y-91000000D02*
G75*
G02*
X261000000Y-90000000I1000000J0D01*
G01*
X151600000Y-50000000D02*
G75*
G02*
X148400000Y-50000000I-1600000J0D01*
G01*
X148400000Y-50000000D02*
G75*
G02*
X151600000Y-50000000I1600000J0D01*
G01*
X180000000Y-31000000D02*
X180000000Y-39000000D01*
X270000000Y-139000000D02*
G75*
G02*
X269000000Y-140000000I-1000000J0D01*
G01*
X40000000Y-91000000D02*
X40000000Y-96000000D01*
X50000000Y-31000000D02*
X50000000Y-49000000D01*
X121000000Y-150000000D02*
X179000000Y-150000000D01*
X120000000Y-141000000D02*
X120000000Y-149000000D01*
X260000000Y-96000000D02*
X260000000Y-91000000D01*
X151600000Y-130000000D02*
G75*
G02*
X148400000Y-130000000I-1600000J0D01*
G01*
X148400000Y-130000000D02*
G75*
G02*
X151600000Y-130000000I1600000J0D01*
G01*
X269000000Y-50000000D02*
G75*
G02*
X270000000Y-51000000I0J-1000000D01*
G01*
X180000000Y-31000000D02*
G75*
G02*
X181000000Y-30000000I1000000J0D01*
G01*
X121000000Y-40000000D02*
G75*
G02*
X120000000Y-39000000I0J1000000D01*
G01*
X31000000Y-90000000D02*
X39000000Y-90000000D01*
X119000000Y-140000000D02*
G75*
G02*
X120000000Y-141000000I0J-1000000D01*
G01*
X250000000Y-49000000D02*
X250000000Y-31000000D01*
X180000000Y-149000000D02*
X180000000Y-141000000D01*
X270000000Y-89000000D02*
G75*
G02*
X269000000Y-90000000I-1000000J0D01*
G01*
X40000000Y-96000000D02*
G75*
G02*
X39000000Y-97000000I-1000000J0D01*
G01*
X270000000Y-139000000D02*
X270000000Y-98000000D01*
X31000000Y-140000000D02*
X119000000Y-140000000D01*
X269000000Y-97000000D02*
G75*
G02*
X270000000Y-98000000I0J-1000000D01*
G01*
X121000000Y-150000000D02*
G75*
G02*
X120000000Y-149000000I0J1000000D01*
G01*
X61600000Y-46000000D02*
G75*
G02*
X58400000Y-46000000I-1600000J0D01*
G01*
X58400000Y-46000000D02*
G75*
G02*
X61600000Y-46000000I1600000J0D01*
G01*
X241600000Y-46000000D02*
G75*
G02*
X238400000Y-46000000I-1600000J0D01*
G01*
X238400000Y-46000000D02*
G75*
G02*
X241600000Y-46000000I1600000J0D01*
G01*
X39000000Y-90000000D02*
G75*
G02*
X40000000Y-91000000I0J-1000000D01*
G01*
X31000000Y-90000000D02*
G75*
G02*
X30000000Y-89000000I0J1000000D01*
G01*
X50000000Y-49000000D02*
G75*
G02*
X49000000Y-50000000I-1000000J0D01*
G01*
X30000000Y-98000000D02*
X30000000Y-139000000D01*
X180000000Y-39000000D02*
G75*
G02*
X179000000Y-40000000I-1000000J0D01*
G01*
X61600000Y-130000000D02*
G75*
G02*
X58400000Y-130000000I-1600000J0D01*
G01*
X58400000Y-130000000D02*
G75*
G02*
X61600000Y-130000000I1600000J0D01*
G01*
X261000000Y-97000000D02*
G75*
G02*
X260000000Y-96000000I0J1000000D01*
G01*
X31000000Y-140000000D02*
G75*
G02*
X30000000Y-139000000I0J1000000D01*
G01*
X30000000Y-51000000D02*
G75*
G02*
X31000000Y-50000000I1000000J0D01*
G01*
X251000000Y-50000000D02*
G75*
G02*
X250000000Y-49000000I0J1000000D01*
G01*
X269000000Y-50000000D02*
X251000000Y-50000000D01*
X180000000Y-141000000D02*
G75*
G02*
X181000000Y-140000000I1000000J0D01*
G01*
X49000000Y-50000000D02*
X31000000Y-50000000D01*
X249000000Y-30000000D02*
X181000000Y-30000000D01*
X119000000Y-30000000D02*
G75*
G02*
X120000000Y-31000000I0J-1000000D01*
G01*
X31000000Y-97000000D02*
X39000000Y-97000000D01*
X261000000Y-90000000D02*
X269000000Y-90000000D01*
X120000000Y-39000000D02*
X120000000Y-31000000D01*
X30000000Y-98000000D02*
G75*
G02*
X31000000Y-97000000I1000000J0D01*
G01*
X179000000Y-40000000D02*
X121000000Y-40000000D01*
X50000000Y-31000000D02*
G75*
G02*
X51000000Y-30000000I1000000J0D01*
G01*
X181000000Y-140000000D02*
X269000000Y-140000000D01*
X180000000Y-149000000D02*
G75*
G02*
X179000000Y-150000000I-1000000J0D01*
G01*
X119000000Y-30000000D02*
X51000000Y-30000000D01*
X249000000Y-30000000D02*
G75*
G02*
X250000000Y-31000000I0J-1000000D01*
G01*
X270000000Y-89000000D02*
X270000000Y-51000000D01*
X269000000Y-97000000D02*
X261000000Y-97000000D01*
X30000000Y-51000000D02*
X30000000Y-89000000D01*
D11*
X136362882Y-77250000D02*
G75*
G02*
X133162882Y-77250000I-1600000J0D01*
G01*
X133162882Y-77250000D02*
G75*
G02*
X136362882Y-77250000I1600000J0D01*
G01*
X136362882Y-107750000D02*
G75*
G02*
X133162882Y-107750000I-1600000J0D01*
G01*
X133162882Y-107750000D02*
G75*
G02*
X136362882Y-107750000I1600000J0D01*
G01*
X166862882Y-77250000D02*
G75*
G02*
X163662882Y-77250000I-1600000J0D01*
G01*
X163662882Y-77250000D02*
G75*
G02*
X166862882Y-77250000I1600000J0D01*
G01*
X166862882Y-107750000D02*
G75*
G02*
X163662882Y-107750000I-1600000J0D01*
G01*
X163662882Y-107750000D02*
G75*
G02*
X166862882Y-107750000I1600000J0D01*
G01*
M02*
