%TF.GenerationSoftware,KiCad,Pcbnew,8.0.4*%
%TF.CreationDate,2025-02-19T19:23:20+01:00*%
%TF.ProjectId,Quiver_PDB_01,51756976-6572-45f5-9044-425f30312e6b,rev?*%
%TF.SameCoordinates,Original*%
%TF.FileFunction,Drillmap*%
%TF.FilePolarity,Positive*%
%FSLAX45Y45*%
G04 Gerber Fmt 4.5, Leading zero omitted, Abs format (unit mm)*
G04 Created by KiCad (PCBNEW 8.0.4) date 2025-02-19 19:23:20*
%MOMM*%
%LPD*%
G01*
G04 APERTURE LIST*
%ADD10C,0.050000*%
%ADD11C,0.120000*%
%ADD12C,0.200000*%
%ADD13C,0.265000*%
%ADD14C,0.500000*%
G04 APERTURE END LIST*
D10*
X24160000Y-13000000D02*
G75*
G02*
X23840000Y-13000000I-160000J0D01*
G01*
X23840000Y-13000000D02*
G75*
G02*
X24160000Y-13000000I160000J0D01*
G01*
X26000000Y-9100000D02*
G75*
G02*
X26100000Y-9000000I100000J0D01*
G01*
X15160000Y-5000000D02*
G75*
G02*
X14840000Y-5000000I-160000J0D01*
G01*
X14840000Y-5000000D02*
G75*
G02*
X15160000Y-5000000I160000J0D01*
G01*
X18000000Y-3100000D02*
X18000000Y-3900000D01*
X27000000Y-13900000D02*
G75*
G02*
X26900000Y-14000000I-100000J0D01*
G01*
X4000000Y-9100000D02*
X4000000Y-9600000D01*
X5000000Y-3100000D02*
X5000000Y-4900000D01*
X12100000Y-15000000D02*
X17900000Y-15000000D01*
X12000000Y-14100000D02*
X12000000Y-14900000D01*
X26000000Y-9600000D02*
X26000000Y-9100000D01*
X15160000Y-13000000D02*
G75*
G02*
X14840000Y-13000000I-160000J0D01*
G01*
X14840000Y-13000000D02*
G75*
G02*
X15160000Y-13000000I160000J0D01*
G01*
X26900000Y-5000000D02*
G75*
G02*
X27000000Y-5100000I0J-100000D01*
G01*
X18000000Y-3100000D02*
G75*
G02*
X18100000Y-3000000I100000J0D01*
G01*
X12100000Y-4000000D02*
G75*
G02*
X12000000Y-3900000I0J100000D01*
G01*
X3100000Y-9000000D02*
X3900000Y-9000000D01*
X11900000Y-14000000D02*
G75*
G02*
X12000000Y-14100000I0J-100000D01*
G01*
X25000000Y-4900000D02*
X25000000Y-3100000D01*
X18000000Y-14900000D02*
X18000000Y-14100000D01*
X27000000Y-8900000D02*
G75*
G02*
X26900000Y-9000000I-100000J0D01*
G01*
X4000000Y-9600000D02*
G75*
G02*
X3900000Y-9700000I-100000J0D01*
G01*
X27000000Y-13900000D02*
X27000000Y-9800000D01*
X3100000Y-14000000D02*
X11900000Y-14000000D01*
X26900000Y-9700000D02*
G75*
G02*
X27000000Y-9800000I0J-100000D01*
G01*
X12100000Y-15000000D02*
G75*
G02*
X12000000Y-14900000I0J100000D01*
G01*
X6160000Y-4600000D02*
G75*
G02*
X5840000Y-4600000I-160000J0D01*
G01*
X5840000Y-4600000D02*
G75*
G02*
X6160000Y-4600000I160000J0D01*
G01*
X24160000Y-4600000D02*
G75*
G02*
X23840000Y-4600000I-160000J0D01*
G01*
X23840000Y-4600000D02*
G75*
G02*
X24160000Y-4600000I160000J0D01*
G01*
X3900000Y-9000000D02*
G75*
G02*
X4000000Y-9100000I0J-100000D01*
G01*
X3100000Y-9000000D02*
G75*
G02*
X3000000Y-8900000I0J100000D01*
G01*
X5000000Y-4900000D02*
G75*
G02*
X4900000Y-5000000I-100000J0D01*
G01*
X3000000Y-9800000D02*
X3000000Y-13900000D01*
X18000000Y-3900000D02*
G75*
G02*
X17900000Y-4000000I-100000J0D01*
G01*
X6160000Y-13000000D02*
G75*
G02*
X5840000Y-13000000I-160000J0D01*
G01*
X5840000Y-13000000D02*
G75*
G02*
X6160000Y-13000000I160000J0D01*
G01*
X26100000Y-9700000D02*
G75*
G02*
X26000000Y-9600000I0J100000D01*
G01*
X3100000Y-14000000D02*
G75*
G02*
X3000000Y-13900000I0J100000D01*
G01*
X3000000Y-5100000D02*
G75*
G02*
X3100000Y-5000000I100000J0D01*
G01*
X25100000Y-5000000D02*
G75*
G02*
X25000000Y-4900000I0J100000D01*
G01*
X26900000Y-5000000D02*
X25100000Y-5000000D01*
X18000000Y-14100000D02*
G75*
G02*
X18100000Y-14000000I100000J0D01*
G01*
X4900000Y-5000000D02*
X3100000Y-5000000D01*
X24900000Y-3000000D02*
X18100000Y-3000000D01*
X11900000Y-3000000D02*
G75*
G02*
X12000000Y-3100000I0J-100000D01*
G01*
X3100000Y-9700000D02*
X3900000Y-9700000D01*
X26100000Y-9000000D02*
X26900000Y-9000000D01*
X12000000Y-3900000D02*
X12000000Y-3100000D01*
X3000000Y-9800000D02*
G75*
G02*
X3100000Y-9700000I100000J0D01*
G01*
X17900000Y-4000000D02*
X12100000Y-4000000D01*
X5000000Y-3100000D02*
G75*
G02*
X5100000Y-3000000I100000J0D01*
G01*
X18100000Y-14000000D02*
X26900000Y-14000000D01*
X18000000Y-14900000D02*
G75*
G02*
X17900000Y-15000000I-100000J0D01*
G01*
X11900000Y-3000000D02*
X5100000Y-3000000D01*
X24900000Y-3000000D02*
G75*
G02*
X25000000Y-3100000I0J-100000D01*
G01*
X27000000Y-8900000D02*
X27000000Y-5100000D01*
X26900000Y-9700000D02*
X26100000Y-9700000D01*
X3000000Y-5100000D02*
X3000000Y-8900000D01*
D11*
X13636288Y-7725000D02*
G75*
G02*
X13316288Y-7725000I-160000J0D01*
G01*
X13316288Y-7725000D02*
G75*
G02*
X13636288Y-7725000I160000J0D01*
G01*
X13636288Y-10775000D02*
G75*
G02*
X13316288Y-10775000I-160000J0D01*
G01*
X13316288Y-10775000D02*
G75*
G02*
X13636288Y-10775000I160000J0D01*
G01*
X16686288Y-7725000D02*
G75*
G02*
X16366288Y-7725000I-160000J0D01*
G01*
X16366288Y-7725000D02*
G75*
G02*
X16686288Y-7725000I160000J0D01*
G01*
X16686288Y-10775000D02*
G75*
G02*
X16366288Y-10775000I-160000J0D01*
G01*
X16366288Y-10775000D02*
G75*
G02*
X16686288Y-10775000I160000J0D01*
G01*
D12*
D13*
X8867500Y-12372000D02*
X9132500Y-12637000D01*
X9132500Y-12372000D02*
X8867500Y-12637000D01*
X18867500Y-12363000D02*
X19132500Y-12628000D01*
X19132500Y-12363000D02*
X18867500Y-12628000D01*
X21867500Y-12372000D02*
X22132500Y-12637000D01*
X22132500Y-12372000D02*
X21867500Y-12637000D01*
D14*
X13450000Y-4700000D02*
G75*
G02*
X12950000Y-4700000I-250000J0D01*
G01*
X12950000Y-4700000D02*
G75*
G02*
X13450000Y-4700000I250000J0D01*
G01*
X17050000Y-4700000D02*
G75*
G02*
X16550000Y-4700000I-250000J0D01*
G01*
X16550000Y-4700000D02*
G75*
G02*
X17050000Y-4700000I250000J0D01*
G01*
D12*
X3258277Y-15313984D02*
X3258277Y-15113984D01*
X3258277Y-15113984D02*
X3305896Y-15113984D01*
X3305896Y-15113984D02*
X3334467Y-15123508D01*
X3334467Y-15123508D02*
X3353515Y-15142555D01*
X3353515Y-15142555D02*
X3363039Y-15161603D01*
X3363039Y-15161603D02*
X3372562Y-15199698D01*
X3372562Y-15199698D02*
X3372562Y-15228269D01*
X3372562Y-15228269D02*
X3363039Y-15266365D01*
X3363039Y-15266365D02*
X3353515Y-15285412D01*
X3353515Y-15285412D02*
X3334467Y-15304460D01*
X3334467Y-15304460D02*
X3305896Y-15313984D01*
X3305896Y-15313984D02*
X3258277Y-15313984D01*
X3458277Y-15313984D02*
X3458277Y-15180650D01*
X3458277Y-15218746D02*
X3467801Y-15199698D01*
X3467801Y-15199698D02*
X3477324Y-15190174D01*
X3477324Y-15190174D02*
X3496372Y-15180650D01*
X3496372Y-15180650D02*
X3515420Y-15180650D01*
X3582086Y-15313984D02*
X3582086Y-15180650D01*
X3582086Y-15113984D02*
X3572562Y-15123508D01*
X3572562Y-15123508D02*
X3582086Y-15133031D01*
X3582086Y-15133031D02*
X3591610Y-15123508D01*
X3591610Y-15123508D02*
X3582086Y-15113984D01*
X3582086Y-15113984D02*
X3582086Y-15133031D01*
X3705896Y-15313984D02*
X3686848Y-15304460D01*
X3686848Y-15304460D02*
X3677324Y-15285412D01*
X3677324Y-15285412D02*
X3677324Y-15113984D01*
X3810658Y-15313984D02*
X3791610Y-15304460D01*
X3791610Y-15304460D02*
X3782086Y-15285412D01*
X3782086Y-15285412D02*
X3782086Y-15113984D01*
X4039229Y-15313984D02*
X4039229Y-15113984D01*
X4039229Y-15113984D02*
X4105896Y-15256841D01*
X4105896Y-15256841D02*
X4172562Y-15113984D01*
X4172562Y-15113984D02*
X4172562Y-15313984D01*
X4353515Y-15313984D02*
X4353515Y-15209222D01*
X4353515Y-15209222D02*
X4343991Y-15190174D01*
X4343991Y-15190174D02*
X4324944Y-15180650D01*
X4324944Y-15180650D02*
X4286848Y-15180650D01*
X4286848Y-15180650D02*
X4267801Y-15190174D01*
X4353515Y-15304460D02*
X4334467Y-15313984D01*
X4334467Y-15313984D02*
X4286848Y-15313984D01*
X4286848Y-15313984D02*
X4267801Y-15304460D01*
X4267801Y-15304460D02*
X4258277Y-15285412D01*
X4258277Y-15285412D02*
X4258277Y-15266365D01*
X4258277Y-15266365D02*
X4267801Y-15247317D01*
X4267801Y-15247317D02*
X4286848Y-15237793D01*
X4286848Y-15237793D02*
X4334467Y-15237793D01*
X4334467Y-15237793D02*
X4353515Y-15228269D01*
X4448753Y-15180650D02*
X4448753Y-15380650D01*
X4448753Y-15190174D02*
X4467801Y-15180650D01*
X4467801Y-15180650D02*
X4505896Y-15180650D01*
X4505896Y-15180650D02*
X4524944Y-15190174D01*
X4524944Y-15190174D02*
X4534467Y-15199698D01*
X4534467Y-15199698D02*
X4543991Y-15218746D01*
X4543991Y-15218746D02*
X4543991Y-15275888D01*
X4543991Y-15275888D02*
X4534467Y-15294936D01*
X4534467Y-15294936D02*
X4524944Y-15304460D01*
X4524944Y-15304460D02*
X4505896Y-15313984D01*
X4505896Y-15313984D02*
X4467801Y-15313984D01*
X4467801Y-15313984D02*
X4448753Y-15304460D01*
X4629705Y-15294936D02*
X4639229Y-15304460D01*
X4639229Y-15304460D02*
X4629705Y-15313984D01*
X4629705Y-15313984D02*
X4620182Y-15304460D01*
X4620182Y-15304460D02*
X4629705Y-15294936D01*
X4629705Y-15294936D02*
X4629705Y-15313984D01*
X4629705Y-15190174D02*
X4639229Y-15199698D01*
X4639229Y-15199698D02*
X4629705Y-15209222D01*
X4629705Y-15209222D02*
X4620182Y-15199698D01*
X4620182Y-15199698D02*
X4629705Y-15190174D01*
X4629705Y-15190174D02*
X4629705Y-15209222D01*
X2797500Y-15542500D02*
X2997500Y-15742500D01*
X2997500Y-15542500D02*
X2797500Y-15742500D01*
X3248753Y-15553031D02*
X3258277Y-15543508D01*
X3258277Y-15543508D02*
X3277324Y-15533984D01*
X3277324Y-15533984D02*
X3324943Y-15533984D01*
X3324943Y-15533984D02*
X3343991Y-15543508D01*
X3343991Y-15543508D02*
X3353515Y-15553031D01*
X3353515Y-15553031D02*
X3363039Y-15572079D01*
X3363039Y-15572079D02*
X3363039Y-15591127D01*
X3363039Y-15591127D02*
X3353515Y-15619698D01*
X3353515Y-15619698D02*
X3239229Y-15733984D01*
X3239229Y-15733984D02*
X3363039Y-15733984D01*
X3448753Y-15714936D02*
X3458277Y-15724460D01*
X3458277Y-15724460D02*
X3448753Y-15733984D01*
X3448753Y-15733984D02*
X3439229Y-15724460D01*
X3439229Y-15724460D02*
X3448753Y-15714936D01*
X3448753Y-15714936D02*
X3448753Y-15733984D01*
X3629705Y-15533984D02*
X3591610Y-15533984D01*
X3591610Y-15533984D02*
X3572562Y-15543508D01*
X3572562Y-15543508D02*
X3563039Y-15553031D01*
X3563039Y-15553031D02*
X3543991Y-15581603D01*
X3543991Y-15581603D02*
X3534467Y-15619698D01*
X3534467Y-15619698D02*
X3534467Y-15695888D01*
X3534467Y-15695888D02*
X3543991Y-15714936D01*
X3543991Y-15714936D02*
X3553515Y-15724460D01*
X3553515Y-15724460D02*
X3572562Y-15733984D01*
X3572562Y-15733984D02*
X3610658Y-15733984D01*
X3610658Y-15733984D02*
X3629705Y-15724460D01*
X3629705Y-15724460D02*
X3639229Y-15714936D01*
X3639229Y-15714936D02*
X3648753Y-15695888D01*
X3648753Y-15695888D02*
X3648753Y-15648269D01*
X3648753Y-15648269D02*
X3639229Y-15629222D01*
X3639229Y-15629222D02*
X3629705Y-15619698D01*
X3629705Y-15619698D02*
X3610658Y-15610174D01*
X3610658Y-15610174D02*
X3572562Y-15610174D01*
X3572562Y-15610174D02*
X3553515Y-15619698D01*
X3553515Y-15619698D02*
X3543991Y-15629222D01*
X3543991Y-15629222D02*
X3534467Y-15648269D01*
X3829705Y-15533984D02*
X3734467Y-15533984D01*
X3734467Y-15533984D02*
X3724943Y-15629222D01*
X3724943Y-15629222D02*
X3734467Y-15619698D01*
X3734467Y-15619698D02*
X3753515Y-15610174D01*
X3753515Y-15610174D02*
X3801134Y-15610174D01*
X3801134Y-15610174D02*
X3820182Y-15619698D01*
X3820182Y-15619698D02*
X3829705Y-15629222D01*
X3829705Y-15629222D02*
X3839229Y-15648269D01*
X3839229Y-15648269D02*
X3839229Y-15695888D01*
X3839229Y-15695888D02*
X3829705Y-15714936D01*
X3829705Y-15714936D02*
X3820182Y-15724460D01*
X3820182Y-15724460D02*
X3801134Y-15733984D01*
X3801134Y-15733984D02*
X3753515Y-15733984D01*
X3753515Y-15733984D02*
X3734467Y-15724460D01*
X3734467Y-15724460D02*
X3724943Y-15714936D01*
X3963039Y-15533984D02*
X3982086Y-15533984D01*
X3982086Y-15533984D02*
X4001134Y-15543508D01*
X4001134Y-15543508D02*
X4010658Y-15553031D01*
X4010658Y-15553031D02*
X4020182Y-15572079D01*
X4020182Y-15572079D02*
X4029705Y-15610174D01*
X4029705Y-15610174D02*
X4029705Y-15657793D01*
X4029705Y-15657793D02*
X4020182Y-15695888D01*
X4020182Y-15695888D02*
X4010658Y-15714936D01*
X4010658Y-15714936D02*
X4001134Y-15724460D01*
X4001134Y-15724460D02*
X3982086Y-15733984D01*
X3982086Y-15733984D02*
X3963039Y-15733984D01*
X3963039Y-15733984D02*
X3943991Y-15724460D01*
X3943991Y-15724460D02*
X3934467Y-15714936D01*
X3934467Y-15714936D02*
X3924943Y-15695888D01*
X3924943Y-15695888D02*
X3915420Y-15657793D01*
X3915420Y-15657793D02*
X3915420Y-15610174D01*
X3915420Y-15610174D02*
X3924943Y-15572079D01*
X3924943Y-15572079D02*
X3934467Y-15553031D01*
X3934467Y-15553031D02*
X3943991Y-15543508D01*
X3943991Y-15543508D02*
X3963039Y-15533984D01*
X4115420Y-15733984D02*
X4115420Y-15600650D01*
X4115420Y-15619698D02*
X4124943Y-15610174D01*
X4124943Y-15610174D02*
X4143991Y-15600650D01*
X4143991Y-15600650D02*
X4172563Y-15600650D01*
X4172563Y-15600650D02*
X4191610Y-15610174D01*
X4191610Y-15610174D02*
X4201134Y-15629222D01*
X4201134Y-15629222D02*
X4201134Y-15733984D01*
X4201134Y-15629222D02*
X4210658Y-15610174D01*
X4210658Y-15610174D02*
X4229705Y-15600650D01*
X4229705Y-15600650D02*
X4258277Y-15600650D01*
X4258277Y-15600650D02*
X4277325Y-15610174D01*
X4277325Y-15610174D02*
X4286848Y-15629222D01*
X4286848Y-15629222D02*
X4286848Y-15733984D01*
X4382086Y-15733984D02*
X4382086Y-15600650D01*
X4382086Y-15619698D02*
X4391610Y-15610174D01*
X4391610Y-15610174D02*
X4410658Y-15600650D01*
X4410658Y-15600650D02*
X4439229Y-15600650D01*
X4439229Y-15600650D02*
X4458277Y-15610174D01*
X4458277Y-15610174D02*
X4467801Y-15629222D01*
X4467801Y-15629222D02*
X4467801Y-15733984D01*
X4467801Y-15629222D02*
X4477325Y-15610174D01*
X4477325Y-15610174D02*
X4496372Y-15600650D01*
X4496372Y-15600650D02*
X4524944Y-15600650D01*
X4524944Y-15600650D02*
X4543991Y-15610174D01*
X4543991Y-15610174D02*
X4553515Y-15629222D01*
X4553515Y-15629222D02*
X4553515Y-15733984D01*
X4943991Y-15524460D02*
X4772563Y-15781603D01*
X5201134Y-15533984D02*
X5220182Y-15533984D01*
X5220182Y-15533984D02*
X5239229Y-15543508D01*
X5239229Y-15543508D02*
X5248753Y-15553031D01*
X5248753Y-15553031D02*
X5258277Y-15572079D01*
X5258277Y-15572079D02*
X5267801Y-15610174D01*
X5267801Y-15610174D02*
X5267801Y-15657793D01*
X5267801Y-15657793D02*
X5258277Y-15695888D01*
X5258277Y-15695888D02*
X5248753Y-15714936D01*
X5248753Y-15714936D02*
X5239229Y-15724460D01*
X5239229Y-15724460D02*
X5220182Y-15733984D01*
X5220182Y-15733984D02*
X5201134Y-15733984D01*
X5201134Y-15733984D02*
X5182087Y-15724460D01*
X5182087Y-15724460D02*
X5172563Y-15714936D01*
X5172563Y-15714936D02*
X5163039Y-15695888D01*
X5163039Y-15695888D02*
X5153515Y-15657793D01*
X5153515Y-15657793D02*
X5153515Y-15610174D01*
X5153515Y-15610174D02*
X5163039Y-15572079D01*
X5163039Y-15572079D02*
X5172563Y-15553031D01*
X5172563Y-15553031D02*
X5182087Y-15543508D01*
X5182087Y-15543508D02*
X5201134Y-15533984D01*
X5353515Y-15714936D02*
X5363039Y-15724460D01*
X5363039Y-15724460D02*
X5353515Y-15733984D01*
X5353515Y-15733984D02*
X5343991Y-15724460D01*
X5343991Y-15724460D02*
X5353515Y-15714936D01*
X5353515Y-15714936D02*
X5353515Y-15733984D01*
X5553515Y-15733984D02*
X5439229Y-15733984D01*
X5496372Y-15733984D02*
X5496372Y-15533984D01*
X5496372Y-15533984D02*
X5477325Y-15562555D01*
X5477325Y-15562555D02*
X5458277Y-15581603D01*
X5458277Y-15581603D02*
X5439229Y-15591127D01*
X5677325Y-15533984D02*
X5696372Y-15533984D01*
X5696372Y-15533984D02*
X5715420Y-15543508D01*
X5715420Y-15543508D02*
X5724944Y-15553031D01*
X5724944Y-15553031D02*
X5734467Y-15572079D01*
X5734467Y-15572079D02*
X5743991Y-15610174D01*
X5743991Y-15610174D02*
X5743991Y-15657793D01*
X5743991Y-15657793D02*
X5734467Y-15695888D01*
X5734467Y-15695888D02*
X5724944Y-15714936D01*
X5724944Y-15714936D02*
X5715420Y-15724460D01*
X5715420Y-15724460D02*
X5696372Y-15733984D01*
X5696372Y-15733984D02*
X5677325Y-15733984D01*
X5677325Y-15733984D02*
X5658277Y-15724460D01*
X5658277Y-15724460D02*
X5648753Y-15714936D01*
X5648753Y-15714936D02*
X5639229Y-15695888D01*
X5639229Y-15695888D02*
X5629706Y-15657793D01*
X5629706Y-15657793D02*
X5629706Y-15610174D01*
X5629706Y-15610174D02*
X5639229Y-15572079D01*
X5639229Y-15572079D02*
X5648753Y-15553031D01*
X5648753Y-15553031D02*
X5658277Y-15543508D01*
X5658277Y-15543508D02*
X5677325Y-15533984D01*
X5915420Y-15600650D02*
X5915420Y-15733984D01*
X5867801Y-15524460D02*
X5820182Y-15667317D01*
X5820182Y-15667317D02*
X5943991Y-15667317D01*
X6001134Y-15533984D02*
X6124944Y-15533984D01*
X6124944Y-15533984D02*
X6058277Y-15610174D01*
X6058277Y-15610174D02*
X6086848Y-15610174D01*
X6086848Y-15610174D02*
X6105896Y-15619698D01*
X6105896Y-15619698D02*
X6115420Y-15629222D01*
X6115420Y-15629222D02*
X6124944Y-15648269D01*
X6124944Y-15648269D02*
X6124944Y-15695888D01*
X6124944Y-15695888D02*
X6115420Y-15714936D01*
X6115420Y-15714936D02*
X6105896Y-15724460D01*
X6105896Y-15724460D02*
X6086848Y-15733984D01*
X6086848Y-15733984D02*
X6029706Y-15733984D01*
X6029706Y-15733984D02*
X6010658Y-15724460D01*
X6010658Y-15724460D02*
X6001134Y-15714936D01*
X6201134Y-15533984D02*
X6201134Y-15572079D01*
X6277325Y-15533984D02*
X6277325Y-15572079D01*
X6572563Y-15810174D02*
X6563039Y-15800650D01*
X6563039Y-15800650D02*
X6543991Y-15772079D01*
X6543991Y-15772079D02*
X6534468Y-15753031D01*
X6534468Y-15753031D02*
X6524944Y-15724460D01*
X6524944Y-15724460D02*
X6515420Y-15676841D01*
X6515420Y-15676841D02*
X6515420Y-15638746D01*
X6515420Y-15638746D02*
X6524944Y-15591127D01*
X6524944Y-15591127D02*
X6534468Y-15562555D01*
X6534468Y-15562555D02*
X6543991Y-15543508D01*
X6543991Y-15543508D02*
X6563039Y-15514936D01*
X6563039Y-15514936D02*
X6572563Y-15505412D01*
X6629706Y-15533984D02*
X6753515Y-15533984D01*
X6753515Y-15533984D02*
X6686848Y-15610174D01*
X6686848Y-15610174D02*
X6715420Y-15610174D01*
X6715420Y-15610174D02*
X6734468Y-15619698D01*
X6734468Y-15619698D02*
X6743991Y-15629222D01*
X6743991Y-15629222D02*
X6753515Y-15648269D01*
X6753515Y-15648269D02*
X6753515Y-15695888D01*
X6753515Y-15695888D02*
X6743991Y-15714936D01*
X6743991Y-15714936D02*
X6734468Y-15724460D01*
X6734468Y-15724460D02*
X6715420Y-15733984D01*
X6715420Y-15733984D02*
X6658277Y-15733984D01*
X6658277Y-15733984D02*
X6639229Y-15724460D01*
X6639229Y-15724460D02*
X6629706Y-15714936D01*
X6991610Y-15733984D02*
X6991610Y-15533984D01*
X7077325Y-15733984D02*
X7077325Y-15629222D01*
X7077325Y-15629222D02*
X7067801Y-15610174D01*
X7067801Y-15610174D02*
X7048753Y-15600650D01*
X7048753Y-15600650D02*
X7020182Y-15600650D01*
X7020182Y-15600650D02*
X7001134Y-15610174D01*
X7001134Y-15610174D02*
X6991610Y-15619698D01*
X7201134Y-15733984D02*
X7182087Y-15724460D01*
X7182087Y-15724460D02*
X7172563Y-15714936D01*
X7172563Y-15714936D02*
X7163039Y-15695888D01*
X7163039Y-15695888D02*
X7163039Y-15638746D01*
X7163039Y-15638746D02*
X7172563Y-15619698D01*
X7172563Y-15619698D02*
X7182087Y-15610174D01*
X7182087Y-15610174D02*
X7201134Y-15600650D01*
X7201134Y-15600650D02*
X7229706Y-15600650D01*
X7229706Y-15600650D02*
X7248753Y-15610174D01*
X7248753Y-15610174D02*
X7258277Y-15619698D01*
X7258277Y-15619698D02*
X7267801Y-15638746D01*
X7267801Y-15638746D02*
X7267801Y-15695888D01*
X7267801Y-15695888D02*
X7258277Y-15714936D01*
X7258277Y-15714936D02*
X7248753Y-15724460D01*
X7248753Y-15724460D02*
X7229706Y-15733984D01*
X7229706Y-15733984D02*
X7201134Y-15733984D01*
X7382087Y-15733984D02*
X7363039Y-15724460D01*
X7363039Y-15724460D02*
X7353515Y-15705412D01*
X7353515Y-15705412D02*
X7353515Y-15533984D01*
X7534468Y-15724460D02*
X7515420Y-15733984D01*
X7515420Y-15733984D02*
X7477325Y-15733984D01*
X7477325Y-15733984D02*
X7458277Y-15724460D01*
X7458277Y-15724460D02*
X7448753Y-15705412D01*
X7448753Y-15705412D02*
X7448753Y-15629222D01*
X7448753Y-15629222D02*
X7458277Y-15610174D01*
X7458277Y-15610174D02*
X7477325Y-15600650D01*
X7477325Y-15600650D02*
X7515420Y-15600650D01*
X7515420Y-15600650D02*
X7534468Y-15610174D01*
X7534468Y-15610174D02*
X7543991Y-15629222D01*
X7543991Y-15629222D02*
X7543991Y-15648269D01*
X7543991Y-15648269D02*
X7448753Y-15667317D01*
X7620182Y-15724460D02*
X7639230Y-15733984D01*
X7639230Y-15733984D02*
X7677325Y-15733984D01*
X7677325Y-15733984D02*
X7696372Y-15724460D01*
X7696372Y-15724460D02*
X7705896Y-15705412D01*
X7705896Y-15705412D02*
X7705896Y-15695888D01*
X7705896Y-15695888D02*
X7696372Y-15676841D01*
X7696372Y-15676841D02*
X7677325Y-15667317D01*
X7677325Y-15667317D02*
X7648753Y-15667317D01*
X7648753Y-15667317D02*
X7629706Y-15657793D01*
X7629706Y-15657793D02*
X7620182Y-15638746D01*
X7620182Y-15638746D02*
X7620182Y-15629222D01*
X7620182Y-15629222D02*
X7629706Y-15610174D01*
X7629706Y-15610174D02*
X7648753Y-15600650D01*
X7648753Y-15600650D02*
X7677325Y-15600650D01*
X7677325Y-15600650D02*
X7696372Y-15610174D01*
X7772563Y-15810174D02*
X7782087Y-15800650D01*
X7782087Y-15800650D02*
X7801134Y-15772079D01*
X7801134Y-15772079D02*
X7810658Y-15753031D01*
X7810658Y-15753031D02*
X7820182Y-15724460D01*
X7820182Y-15724460D02*
X7829706Y-15676841D01*
X7829706Y-15676841D02*
X7829706Y-15638746D01*
X7829706Y-15638746D02*
X7820182Y-15591127D01*
X7820182Y-15591127D02*
X7810658Y-15562555D01*
X7810658Y-15562555D02*
X7801134Y-15543508D01*
X7801134Y-15543508D02*
X7782087Y-15514936D01*
X7782087Y-15514936D02*
X7772563Y-15505412D01*
X8134468Y-15810174D02*
X8124944Y-15800650D01*
X8124944Y-15800650D02*
X8105896Y-15772079D01*
X8105896Y-15772079D02*
X8096372Y-15753031D01*
X8096372Y-15753031D02*
X8086849Y-15724460D01*
X8086849Y-15724460D02*
X8077325Y-15676841D01*
X8077325Y-15676841D02*
X8077325Y-15638746D01*
X8077325Y-15638746D02*
X8086849Y-15591127D01*
X8086849Y-15591127D02*
X8096372Y-15562555D01*
X8096372Y-15562555D02*
X8105896Y-15543508D01*
X8105896Y-15543508D02*
X8124944Y-15514936D01*
X8124944Y-15514936D02*
X8134468Y-15505412D01*
X8210658Y-15600650D02*
X8210658Y-15733984D01*
X8210658Y-15619698D02*
X8220182Y-15610174D01*
X8220182Y-15610174D02*
X8239230Y-15600650D01*
X8239230Y-15600650D02*
X8267801Y-15600650D01*
X8267801Y-15600650D02*
X8286849Y-15610174D01*
X8286849Y-15610174D02*
X8296372Y-15629222D01*
X8296372Y-15629222D02*
X8296372Y-15733984D01*
X8420182Y-15733984D02*
X8401134Y-15724460D01*
X8401134Y-15724460D02*
X8391611Y-15714936D01*
X8391611Y-15714936D02*
X8382087Y-15695888D01*
X8382087Y-15695888D02*
X8382087Y-15638746D01*
X8382087Y-15638746D02*
X8391611Y-15619698D01*
X8391611Y-15619698D02*
X8401134Y-15610174D01*
X8401134Y-15610174D02*
X8420182Y-15600650D01*
X8420182Y-15600650D02*
X8448754Y-15600650D01*
X8448754Y-15600650D02*
X8467801Y-15610174D01*
X8467801Y-15610174D02*
X8477325Y-15619698D01*
X8477325Y-15619698D02*
X8486849Y-15638746D01*
X8486849Y-15638746D02*
X8486849Y-15695888D01*
X8486849Y-15695888D02*
X8477325Y-15714936D01*
X8477325Y-15714936D02*
X8467801Y-15724460D01*
X8467801Y-15724460D02*
X8448754Y-15733984D01*
X8448754Y-15733984D02*
X8420182Y-15733984D01*
X8543992Y-15600650D02*
X8620182Y-15600650D01*
X8572563Y-15533984D02*
X8572563Y-15705412D01*
X8572563Y-15705412D02*
X8582087Y-15724460D01*
X8582087Y-15724460D02*
X8601134Y-15733984D01*
X8601134Y-15733984D02*
X8620182Y-15733984D01*
X8839230Y-15600650D02*
X8839230Y-15800650D01*
X8839230Y-15610174D02*
X8858277Y-15600650D01*
X8858277Y-15600650D02*
X8896373Y-15600650D01*
X8896373Y-15600650D02*
X8915420Y-15610174D01*
X8915420Y-15610174D02*
X8924944Y-15619698D01*
X8924944Y-15619698D02*
X8934468Y-15638746D01*
X8934468Y-15638746D02*
X8934468Y-15695888D01*
X8934468Y-15695888D02*
X8924944Y-15714936D01*
X8924944Y-15714936D02*
X8915420Y-15724460D01*
X8915420Y-15724460D02*
X8896373Y-15733984D01*
X8896373Y-15733984D02*
X8858277Y-15733984D01*
X8858277Y-15733984D02*
X8839230Y-15724460D01*
X9048754Y-15733984D02*
X9029706Y-15724460D01*
X9029706Y-15724460D02*
X9020182Y-15705412D01*
X9020182Y-15705412D02*
X9020182Y-15533984D01*
X9210658Y-15733984D02*
X9210658Y-15629222D01*
X9210658Y-15629222D02*
X9201135Y-15610174D01*
X9201135Y-15610174D02*
X9182087Y-15600650D01*
X9182087Y-15600650D02*
X9143992Y-15600650D01*
X9143992Y-15600650D02*
X9124944Y-15610174D01*
X9210658Y-15724460D02*
X9191611Y-15733984D01*
X9191611Y-15733984D02*
X9143992Y-15733984D01*
X9143992Y-15733984D02*
X9124944Y-15724460D01*
X9124944Y-15724460D02*
X9115420Y-15705412D01*
X9115420Y-15705412D02*
X9115420Y-15686365D01*
X9115420Y-15686365D02*
X9124944Y-15667317D01*
X9124944Y-15667317D02*
X9143992Y-15657793D01*
X9143992Y-15657793D02*
X9191611Y-15657793D01*
X9191611Y-15657793D02*
X9210658Y-15648269D01*
X9277325Y-15600650D02*
X9353515Y-15600650D01*
X9305896Y-15533984D02*
X9305896Y-15705412D01*
X9305896Y-15705412D02*
X9315420Y-15724460D01*
X9315420Y-15724460D02*
X9334468Y-15733984D01*
X9334468Y-15733984D02*
X9353515Y-15733984D01*
X9496373Y-15724460D02*
X9477325Y-15733984D01*
X9477325Y-15733984D02*
X9439230Y-15733984D01*
X9439230Y-15733984D02*
X9420182Y-15724460D01*
X9420182Y-15724460D02*
X9410658Y-15705412D01*
X9410658Y-15705412D02*
X9410658Y-15629222D01*
X9410658Y-15629222D02*
X9420182Y-15610174D01*
X9420182Y-15610174D02*
X9439230Y-15600650D01*
X9439230Y-15600650D02*
X9477325Y-15600650D01*
X9477325Y-15600650D02*
X9496373Y-15610174D01*
X9496373Y-15610174D02*
X9505896Y-15629222D01*
X9505896Y-15629222D02*
X9505896Y-15648269D01*
X9505896Y-15648269D02*
X9410658Y-15667317D01*
X9677325Y-15733984D02*
X9677325Y-15533984D01*
X9677325Y-15724460D02*
X9658277Y-15733984D01*
X9658277Y-15733984D02*
X9620182Y-15733984D01*
X9620182Y-15733984D02*
X9601135Y-15724460D01*
X9601135Y-15724460D02*
X9591611Y-15714936D01*
X9591611Y-15714936D02*
X9582087Y-15695888D01*
X9582087Y-15695888D02*
X9582087Y-15638746D01*
X9582087Y-15638746D02*
X9591611Y-15619698D01*
X9591611Y-15619698D02*
X9601135Y-15610174D01*
X9601135Y-15610174D02*
X9620182Y-15600650D01*
X9620182Y-15600650D02*
X9658277Y-15600650D01*
X9658277Y-15600650D02*
X9677325Y-15610174D01*
X9753516Y-15810174D02*
X9763039Y-15800650D01*
X9763039Y-15800650D02*
X9782087Y-15772079D01*
X9782087Y-15772079D02*
X9791611Y-15753031D01*
X9791611Y-15753031D02*
X9801135Y-15724460D01*
X9801135Y-15724460D02*
X9810658Y-15676841D01*
X9810658Y-15676841D02*
X9810658Y-15638746D01*
X9810658Y-15638746D02*
X9801135Y-15591127D01*
X9801135Y-15591127D02*
X9791611Y-15562555D01*
X9791611Y-15562555D02*
X9782087Y-15543508D01*
X9782087Y-15543508D02*
X9763039Y-15514936D01*
X9763039Y-15514936D02*
X9753516Y-15505412D01*
X2997500Y-15962500D02*
G75*
G02*
X2797500Y-15962500I-100000J0D01*
G01*
X2797500Y-15962500D02*
G75*
G02*
X2997500Y-15962500I100000J0D01*
G01*
X3353515Y-15853984D02*
X3258277Y-15853984D01*
X3258277Y-15853984D02*
X3248753Y-15949222D01*
X3248753Y-15949222D02*
X3258277Y-15939698D01*
X3258277Y-15939698D02*
X3277324Y-15930174D01*
X3277324Y-15930174D02*
X3324943Y-15930174D01*
X3324943Y-15930174D02*
X3343991Y-15939698D01*
X3343991Y-15939698D02*
X3353515Y-15949222D01*
X3353515Y-15949222D02*
X3363039Y-15968269D01*
X3363039Y-15968269D02*
X3363039Y-16015888D01*
X3363039Y-16015888D02*
X3353515Y-16034936D01*
X3353515Y-16034936D02*
X3343991Y-16044460D01*
X3343991Y-16044460D02*
X3324943Y-16053984D01*
X3324943Y-16053984D02*
X3277324Y-16053984D01*
X3277324Y-16053984D02*
X3258277Y-16044460D01*
X3258277Y-16044460D02*
X3248753Y-16034936D01*
X3448753Y-16034936D02*
X3458277Y-16044460D01*
X3458277Y-16044460D02*
X3448753Y-16053984D01*
X3448753Y-16053984D02*
X3439229Y-16044460D01*
X3439229Y-16044460D02*
X3448753Y-16034936D01*
X3448753Y-16034936D02*
X3448753Y-16053984D01*
X3582086Y-15853984D02*
X3601134Y-15853984D01*
X3601134Y-15853984D02*
X3620182Y-15863508D01*
X3620182Y-15863508D02*
X3629705Y-15873031D01*
X3629705Y-15873031D02*
X3639229Y-15892079D01*
X3639229Y-15892079D02*
X3648753Y-15930174D01*
X3648753Y-15930174D02*
X3648753Y-15977793D01*
X3648753Y-15977793D02*
X3639229Y-16015888D01*
X3639229Y-16015888D02*
X3629705Y-16034936D01*
X3629705Y-16034936D02*
X3620182Y-16044460D01*
X3620182Y-16044460D02*
X3601134Y-16053984D01*
X3601134Y-16053984D02*
X3582086Y-16053984D01*
X3582086Y-16053984D02*
X3563039Y-16044460D01*
X3563039Y-16044460D02*
X3553515Y-16034936D01*
X3553515Y-16034936D02*
X3543991Y-16015888D01*
X3543991Y-16015888D02*
X3534467Y-15977793D01*
X3534467Y-15977793D02*
X3534467Y-15930174D01*
X3534467Y-15930174D02*
X3543991Y-15892079D01*
X3543991Y-15892079D02*
X3553515Y-15873031D01*
X3553515Y-15873031D02*
X3563039Y-15863508D01*
X3563039Y-15863508D02*
X3582086Y-15853984D01*
X3772562Y-15853984D02*
X3791610Y-15853984D01*
X3791610Y-15853984D02*
X3810658Y-15863508D01*
X3810658Y-15863508D02*
X3820182Y-15873031D01*
X3820182Y-15873031D02*
X3829705Y-15892079D01*
X3829705Y-15892079D02*
X3839229Y-15930174D01*
X3839229Y-15930174D02*
X3839229Y-15977793D01*
X3839229Y-15977793D02*
X3829705Y-16015888D01*
X3829705Y-16015888D02*
X3820182Y-16034936D01*
X3820182Y-16034936D02*
X3810658Y-16044460D01*
X3810658Y-16044460D02*
X3791610Y-16053984D01*
X3791610Y-16053984D02*
X3772562Y-16053984D01*
X3772562Y-16053984D02*
X3753515Y-16044460D01*
X3753515Y-16044460D02*
X3743991Y-16034936D01*
X3743991Y-16034936D02*
X3734467Y-16015888D01*
X3734467Y-16015888D02*
X3724943Y-15977793D01*
X3724943Y-15977793D02*
X3724943Y-15930174D01*
X3724943Y-15930174D02*
X3734467Y-15892079D01*
X3734467Y-15892079D02*
X3743991Y-15873031D01*
X3743991Y-15873031D02*
X3753515Y-15863508D01*
X3753515Y-15863508D02*
X3772562Y-15853984D01*
X3963039Y-15853984D02*
X3982086Y-15853984D01*
X3982086Y-15853984D02*
X4001134Y-15863508D01*
X4001134Y-15863508D02*
X4010658Y-15873031D01*
X4010658Y-15873031D02*
X4020182Y-15892079D01*
X4020182Y-15892079D02*
X4029705Y-15930174D01*
X4029705Y-15930174D02*
X4029705Y-15977793D01*
X4029705Y-15977793D02*
X4020182Y-16015888D01*
X4020182Y-16015888D02*
X4010658Y-16034936D01*
X4010658Y-16034936D02*
X4001134Y-16044460D01*
X4001134Y-16044460D02*
X3982086Y-16053984D01*
X3982086Y-16053984D02*
X3963039Y-16053984D01*
X3963039Y-16053984D02*
X3943991Y-16044460D01*
X3943991Y-16044460D02*
X3934467Y-16034936D01*
X3934467Y-16034936D02*
X3924943Y-16015888D01*
X3924943Y-16015888D02*
X3915420Y-15977793D01*
X3915420Y-15977793D02*
X3915420Y-15930174D01*
X3915420Y-15930174D02*
X3924943Y-15892079D01*
X3924943Y-15892079D02*
X3934467Y-15873031D01*
X3934467Y-15873031D02*
X3943991Y-15863508D01*
X3943991Y-15863508D02*
X3963039Y-15853984D01*
X4115420Y-16053984D02*
X4115420Y-15920650D01*
X4115420Y-15939698D02*
X4124943Y-15930174D01*
X4124943Y-15930174D02*
X4143991Y-15920650D01*
X4143991Y-15920650D02*
X4172563Y-15920650D01*
X4172563Y-15920650D02*
X4191610Y-15930174D01*
X4191610Y-15930174D02*
X4201134Y-15949222D01*
X4201134Y-15949222D02*
X4201134Y-16053984D01*
X4201134Y-15949222D02*
X4210658Y-15930174D01*
X4210658Y-15930174D02*
X4229705Y-15920650D01*
X4229705Y-15920650D02*
X4258277Y-15920650D01*
X4258277Y-15920650D02*
X4277325Y-15930174D01*
X4277325Y-15930174D02*
X4286848Y-15949222D01*
X4286848Y-15949222D02*
X4286848Y-16053984D01*
X4382086Y-16053984D02*
X4382086Y-15920650D01*
X4382086Y-15939698D02*
X4391610Y-15930174D01*
X4391610Y-15930174D02*
X4410658Y-15920650D01*
X4410658Y-15920650D02*
X4439229Y-15920650D01*
X4439229Y-15920650D02*
X4458277Y-15930174D01*
X4458277Y-15930174D02*
X4467801Y-15949222D01*
X4467801Y-15949222D02*
X4467801Y-16053984D01*
X4467801Y-15949222D02*
X4477325Y-15930174D01*
X4477325Y-15930174D02*
X4496372Y-15920650D01*
X4496372Y-15920650D02*
X4524944Y-15920650D01*
X4524944Y-15920650D02*
X4543991Y-15930174D01*
X4543991Y-15930174D02*
X4553515Y-15949222D01*
X4553515Y-15949222D02*
X4553515Y-16053984D01*
X4943991Y-15844460D02*
X4772563Y-16101603D01*
X5201134Y-15853984D02*
X5220182Y-15853984D01*
X5220182Y-15853984D02*
X5239229Y-15863508D01*
X5239229Y-15863508D02*
X5248753Y-15873031D01*
X5248753Y-15873031D02*
X5258277Y-15892079D01*
X5258277Y-15892079D02*
X5267801Y-15930174D01*
X5267801Y-15930174D02*
X5267801Y-15977793D01*
X5267801Y-15977793D02*
X5258277Y-16015888D01*
X5258277Y-16015888D02*
X5248753Y-16034936D01*
X5248753Y-16034936D02*
X5239229Y-16044460D01*
X5239229Y-16044460D02*
X5220182Y-16053984D01*
X5220182Y-16053984D02*
X5201134Y-16053984D01*
X5201134Y-16053984D02*
X5182087Y-16044460D01*
X5182087Y-16044460D02*
X5172563Y-16034936D01*
X5172563Y-16034936D02*
X5163039Y-16015888D01*
X5163039Y-16015888D02*
X5153515Y-15977793D01*
X5153515Y-15977793D02*
X5153515Y-15930174D01*
X5153515Y-15930174D02*
X5163039Y-15892079D01*
X5163039Y-15892079D02*
X5172563Y-15873031D01*
X5172563Y-15873031D02*
X5182087Y-15863508D01*
X5182087Y-15863508D02*
X5201134Y-15853984D01*
X5353515Y-16034936D02*
X5363039Y-16044460D01*
X5363039Y-16044460D02*
X5353515Y-16053984D01*
X5353515Y-16053984D02*
X5343991Y-16044460D01*
X5343991Y-16044460D02*
X5353515Y-16034936D01*
X5353515Y-16034936D02*
X5353515Y-16053984D01*
X5553515Y-16053984D02*
X5439229Y-16053984D01*
X5496372Y-16053984D02*
X5496372Y-15853984D01*
X5496372Y-15853984D02*
X5477325Y-15882555D01*
X5477325Y-15882555D02*
X5458277Y-15901603D01*
X5458277Y-15901603D02*
X5439229Y-15911127D01*
X5648753Y-16053984D02*
X5686848Y-16053984D01*
X5686848Y-16053984D02*
X5705896Y-16044460D01*
X5705896Y-16044460D02*
X5715420Y-16034936D01*
X5715420Y-16034936D02*
X5734467Y-16006365D01*
X5734467Y-16006365D02*
X5743991Y-15968269D01*
X5743991Y-15968269D02*
X5743991Y-15892079D01*
X5743991Y-15892079D02*
X5734467Y-15873031D01*
X5734467Y-15873031D02*
X5724944Y-15863508D01*
X5724944Y-15863508D02*
X5705896Y-15853984D01*
X5705896Y-15853984D02*
X5667801Y-15853984D01*
X5667801Y-15853984D02*
X5648753Y-15863508D01*
X5648753Y-15863508D02*
X5639229Y-15873031D01*
X5639229Y-15873031D02*
X5629706Y-15892079D01*
X5629706Y-15892079D02*
X5629706Y-15939698D01*
X5629706Y-15939698D02*
X5639229Y-15958746D01*
X5639229Y-15958746D02*
X5648753Y-15968269D01*
X5648753Y-15968269D02*
X5667801Y-15977793D01*
X5667801Y-15977793D02*
X5705896Y-15977793D01*
X5705896Y-15977793D02*
X5724944Y-15968269D01*
X5724944Y-15968269D02*
X5734467Y-15958746D01*
X5734467Y-15958746D02*
X5743991Y-15939698D01*
X5915420Y-15853984D02*
X5877325Y-15853984D01*
X5877325Y-15853984D02*
X5858277Y-15863508D01*
X5858277Y-15863508D02*
X5848753Y-15873031D01*
X5848753Y-15873031D02*
X5829706Y-15901603D01*
X5829706Y-15901603D02*
X5820182Y-15939698D01*
X5820182Y-15939698D02*
X5820182Y-16015888D01*
X5820182Y-16015888D02*
X5829706Y-16034936D01*
X5829706Y-16034936D02*
X5839229Y-16044460D01*
X5839229Y-16044460D02*
X5858277Y-16053984D01*
X5858277Y-16053984D02*
X5896372Y-16053984D01*
X5896372Y-16053984D02*
X5915420Y-16044460D01*
X5915420Y-16044460D02*
X5924944Y-16034936D01*
X5924944Y-16034936D02*
X5934467Y-16015888D01*
X5934467Y-16015888D02*
X5934467Y-15968269D01*
X5934467Y-15968269D02*
X5924944Y-15949222D01*
X5924944Y-15949222D02*
X5915420Y-15939698D01*
X5915420Y-15939698D02*
X5896372Y-15930174D01*
X5896372Y-15930174D02*
X5858277Y-15930174D01*
X5858277Y-15930174D02*
X5839229Y-15939698D01*
X5839229Y-15939698D02*
X5829706Y-15949222D01*
X5829706Y-15949222D02*
X5820182Y-15968269D01*
X6029706Y-16053984D02*
X6067801Y-16053984D01*
X6067801Y-16053984D02*
X6086848Y-16044460D01*
X6086848Y-16044460D02*
X6096372Y-16034936D01*
X6096372Y-16034936D02*
X6115420Y-16006365D01*
X6115420Y-16006365D02*
X6124944Y-15968269D01*
X6124944Y-15968269D02*
X6124944Y-15892079D01*
X6124944Y-15892079D02*
X6115420Y-15873031D01*
X6115420Y-15873031D02*
X6105896Y-15863508D01*
X6105896Y-15863508D02*
X6086848Y-15853984D01*
X6086848Y-15853984D02*
X6048753Y-15853984D01*
X6048753Y-15853984D02*
X6029706Y-15863508D01*
X6029706Y-15863508D02*
X6020182Y-15873031D01*
X6020182Y-15873031D02*
X6010658Y-15892079D01*
X6010658Y-15892079D02*
X6010658Y-15939698D01*
X6010658Y-15939698D02*
X6020182Y-15958746D01*
X6020182Y-15958746D02*
X6029706Y-15968269D01*
X6029706Y-15968269D02*
X6048753Y-15977793D01*
X6048753Y-15977793D02*
X6086848Y-15977793D01*
X6086848Y-15977793D02*
X6105896Y-15968269D01*
X6105896Y-15968269D02*
X6115420Y-15958746D01*
X6115420Y-15958746D02*
X6124944Y-15939698D01*
X6201134Y-15853984D02*
X6201134Y-15892079D01*
X6277325Y-15853984D02*
X6277325Y-15892079D01*
X6572563Y-16130174D02*
X6563039Y-16120650D01*
X6563039Y-16120650D02*
X6543991Y-16092079D01*
X6543991Y-16092079D02*
X6534468Y-16073031D01*
X6534468Y-16073031D02*
X6524944Y-16044460D01*
X6524944Y-16044460D02*
X6515420Y-15996841D01*
X6515420Y-15996841D02*
X6515420Y-15958746D01*
X6515420Y-15958746D02*
X6524944Y-15911127D01*
X6524944Y-15911127D02*
X6534468Y-15882555D01*
X6534468Y-15882555D02*
X6543991Y-15863508D01*
X6543991Y-15863508D02*
X6563039Y-15834936D01*
X6563039Y-15834936D02*
X6572563Y-15825412D01*
X6639229Y-15873031D02*
X6648753Y-15863508D01*
X6648753Y-15863508D02*
X6667801Y-15853984D01*
X6667801Y-15853984D02*
X6715420Y-15853984D01*
X6715420Y-15853984D02*
X6734468Y-15863508D01*
X6734468Y-15863508D02*
X6743991Y-15873031D01*
X6743991Y-15873031D02*
X6753515Y-15892079D01*
X6753515Y-15892079D02*
X6753515Y-15911127D01*
X6753515Y-15911127D02*
X6743991Y-15939698D01*
X6743991Y-15939698D02*
X6629706Y-16053984D01*
X6629706Y-16053984D02*
X6753515Y-16053984D01*
X6991610Y-16053984D02*
X6991610Y-15853984D01*
X7077325Y-16053984D02*
X7077325Y-15949222D01*
X7077325Y-15949222D02*
X7067801Y-15930174D01*
X7067801Y-15930174D02*
X7048753Y-15920650D01*
X7048753Y-15920650D02*
X7020182Y-15920650D01*
X7020182Y-15920650D02*
X7001134Y-15930174D01*
X7001134Y-15930174D02*
X6991610Y-15939698D01*
X7201134Y-16053984D02*
X7182087Y-16044460D01*
X7182087Y-16044460D02*
X7172563Y-16034936D01*
X7172563Y-16034936D02*
X7163039Y-16015888D01*
X7163039Y-16015888D02*
X7163039Y-15958746D01*
X7163039Y-15958746D02*
X7172563Y-15939698D01*
X7172563Y-15939698D02*
X7182087Y-15930174D01*
X7182087Y-15930174D02*
X7201134Y-15920650D01*
X7201134Y-15920650D02*
X7229706Y-15920650D01*
X7229706Y-15920650D02*
X7248753Y-15930174D01*
X7248753Y-15930174D02*
X7258277Y-15939698D01*
X7258277Y-15939698D02*
X7267801Y-15958746D01*
X7267801Y-15958746D02*
X7267801Y-16015888D01*
X7267801Y-16015888D02*
X7258277Y-16034936D01*
X7258277Y-16034936D02*
X7248753Y-16044460D01*
X7248753Y-16044460D02*
X7229706Y-16053984D01*
X7229706Y-16053984D02*
X7201134Y-16053984D01*
X7382087Y-16053984D02*
X7363039Y-16044460D01*
X7363039Y-16044460D02*
X7353515Y-16025412D01*
X7353515Y-16025412D02*
X7353515Y-15853984D01*
X7534468Y-16044460D02*
X7515420Y-16053984D01*
X7515420Y-16053984D02*
X7477325Y-16053984D01*
X7477325Y-16053984D02*
X7458277Y-16044460D01*
X7458277Y-16044460D02*
X7448753Y-16025412D01*
X7448753Y-16025412D02*
X7448753Y-15949222D01*
X7448753Y-15949222D02*
X7458277Y-15930174D01*
X7458277Y-15930174D02*
X7477325Y-15920650D01*
X7477325Y-15920650D02*
X7515420Y-15920650D01*
X7515420Y-15920650D02*
X7534468Y-15930174D01*
X7534468Y-15930174D02*
X7543991Y-15949222D01*
X7543991Y-15949222D02*
X7543991Y-15968269D01*
X7543991Y-15968269D02*
X7448753Y-15987317D01*
X7620182Y-16044460D02*
X7639230Y-16053984D01*
X7639230Y-16053984D02*
X7677325Y-16053984D01*
X7677325Y-16053984D02*
X7696372Y-16044460D01*
X7696372Y-16044460D02*
X7705896Y-16025412D01*
X7705896Y-16025412D02*
X7705896Y-16015888D01*
X7705896Y-16015888D02*
X7696372Y-15996841D01*
X7696372Y-15996841D02*
X7677325Y-15987317D01*
X7677325Y-15987317D02*
X7648753Y-15987317D01*
X7648753Y-15987317D02*
X7629706Y-15977793D01*
X7629706Y-15977793D02*
X7620182Y-15958746D01*
X7620182Y-15958746D02*
X7620182Y-15949222D01*
X7620182Y-15949222D02*
X7629706Y-15930174D01*
X7629706Y-15930174D02*
X7648753Y-15920650D01*
X7648753Y-15920650D02*
X7677325Y-15920650D01*
X7677325Y-15920650D02*
X7696372Y-15930174D01*
X7772563Y-16130174D02*
X7782087Y-16120650D01*
X7782087Y-16120650D02*
X7801134Y-16092079D01*
X7801134Y-16092079D02*
X7810658Y-16073031D01*
X7810658Y-16073031D02*
X7820182Y-16044460D01*
X7820182Y-16044460D02*
X7829706Y-15996841D01*
X7829706Y-15996841D02*
X7829706Y-15958746D01*
X7829706Y-15958746D02*
X7820182Y-15911127D01*
X7820182Y-15911127D02*
X7810658Y-15882555D01*
X7810658Y-15882555D02*
X7801134Y-15863508D01*
X7801134Y-15863508D02*
X7782087Y-15834936D01*
X7782087Y-15834936D02*
X7772563Y-15825412D01*
X8134468Y-16130174D02*
X8124944Y-16120650D01*
X8124944Y-16120650D02*
X8105896Y-16092079D01*
X8105896Y-16092079D02*
X8096372Y-16073031D01*
X8096372Y-16073031D02*
X8086849Y-16044460D01*
X8086849Y-16044460D02*
X8077325Y-15996841D01*
X8077325Y-15996841D02*
X8077325Y-15958746D01*
X8077325Y-15958746D02*
X8086849Y-15911127D01*
X8086849Y-15911127D02*
X8096372Y-15882555D01*
X8096372Y-15882555D02*
X8105896Y-15863508D01*
X8105896Y-15863508D02*
X8124944Y-15834936D01*
X8124944Y-15834936D02*
X8134468Y-15825412D01*
X8210658Y-15920650D02*
X8210658Y-16053984D01*
X8210658Y-15939698D02*
X8220182Y-15930174D01*
X8220182Y-15930174D02*
X8239230Y-15920650D01*
X8239230Y-15920650D02*
X8267801Y-15920650D01*
X8267801Y-15920650D02*
X8286849Y-15930174D01*
X8286849Y-15930174D02*
X8296372Y-15949222D01*
X8296372Y-15949222D02*
X8296372Y-16053984D01*
X8420182Y-16053984D02*
X8401134Y-16044460D01*
X8401134Y-16044460D02*
X8391611Y-16034936D01*
X8391611Y-16034936D02*
X8382087Y-16015888D01*
X8382087Y-16015888D02*
X8382087Y-15958746D01*
X8382087Y-15958746D02*
X8391611Y-15939698D01*
X8391611Y-15939698D02*
X8401134Y-15930174D01*
X8401134Y-15930174D02*
X8420182Y-15920650D01*
X8420182Y-15920650D02*
X8448754Y-15920650D01*
X8448754Y-15920650D02*
X8467801Y-15930174D01*
X8467801Y-15930174D02*
X8477325Y-15939698D01*
X8477325Y-15939698D02*
X8486849Y-15958746D01*
X8486849Y-15958746D02*
X8486849Y-16015888D01*
X8486849Y-16015888D02*
X8477325Y-16034936D01*
X8477325Y-16034936D02*
X8467801Y-16044460D01*
X8467801Y-16044460D02*
X8448754Y-16053984D01*
X8448754Y-16053984D02*
X8420182Y-16053984D01*
X8543992Y-15920650D02*
X8620182Y-15920650D01*
X8572563Y-15853984D02*
X8572563Y-16025412D01*
X8572563Y-16025412D02*
X8582087Y-16044460D01*
X8582087Y-16044460D02*
X8601134Y-16053984D01*
X8601134Y-16053984D02*
X8620182Y-16053984D01*
X8839230Y-15920650D02*
X8839230Y-16120650D01*
X8839230Y-15930174D02*
X8858277Y-15920650D01*
X8858277Y-15920650D02*
X8896373Y-15920650D01*
X8896373Y-15920650D02*
X8915420Y-15930174D01*
X8915420Y-15930174D02*
X8924944Y-15939698D01*
X8924944Y-15939698D02*
X8934468Y-15958746D01*
X8934468Y-15958746D02*
X8934468Y-16015888D01*
X8934468Y-16015888D02*
X8924944Y-16034936D01*
X8924944Y-16034936D02*
X8915420Y-16044460D01*
X8915420Y-16044460D02*
X8896373Y-16053984D01*
X8896373Y-16053984D02*
X8858277Y-16053984D01*
X8858277Y-16053984D02*
X8839230Y-16044460D01*
X9048754Y-16053984D02*
X9029706Y-16044460D01*
X9029706Y-16044460D02*
X9020182Y-16025412D01*
X9020182Y-16025412D02*
X9020182Y-15853984D01*
X9210658Y-16053984D02*
X9210658Y-15949222D01*
X9210658Y-15949222D02*
X9201135Y-15930174D01*
X9201135Y-15930174D02*
X9182087Y-15920650D01*
X9182087Y-15920650D02*
X9143992Y-15920650D01*
X9143992Y-15920650D02*
X9124944Y-15930174D01*
X9210658Y-16044460D02*
X9191611Y-16053984D01*
X9191611Y-16053984D02*
X9143992Y-16053984D01*
X9143992Y-16053984D02*
X9124944Y-16044460D01*
X9124944Y-16044460D02*
X9115420Y-16025412D01*
X9115420Y-16025412D02*
X9115420Y-16006365D01*
X9115420Y-16006365D02*
X9124944Y-15987317D01*
X9124944Y-15987317D02*
X9143992Y-15977793D01*
X9143992Y-15977793D02*
X9191611Y-15977793D01*
X9191611Y-15977793D02*
X9210658Y-15968269D01*
X9277325Y-15920650D02*
X9353515Y-15920650D01*
X9305896Y-15853984D02*
X9305896Y-16025412D01*
X9305896Y-16025412D02*
X9315420Y-16044460D01*
X9315420Y-16044460D02*
X9334468Y-16053984D01*
X9334468Y-16053984D02*
X9353515Y-16053984D01*
X9496373Y-16044460D02*
X9477325Y-16053984D01*
X9477325Y-16053984D02*
X9439230Y-16053984D01*
X9439230Y-16053984D02*
X9420182Y-16044460D01*
X9420182Y-16044460D02*
X9410658Y-16025412D01*
X9410658Y-16025412D02*
X9410658Y-15949222D01*
X9410658Y-15949222D02*
X9420182Y-15930174D01*
X9420182Y-15930174D02*
X9439230Y-15920650D01*
X9439230Y-15920650D02*
X9477325Y-15920650D01*
X9477325Y-15920650D02*
X9496373Y-15930174D01*
X9496373Y-15930174D02*
X9505896Y-15949222D01*
X9505896Y-15949222D02*
X9505896Y-15968269D01*
X9505896Y-15968269D02*
X9410658Y-15987317D01*
X9677325Y-16053984D02*
X9677325Y-15853984D01*
X9677325Y-16044460D02*
X9658277Y-16053984D01*
X9658277Y-16053984D02*
X9620182Y-16053984D01*
X9620182Y-16053984D02*
X9601135Y-16044460D01*
X9601135Y-16044460D02*
X9591611Y-16034936D01*
X9591611Y-16034936D02*
X9582087Y-16015888D01*
X9582087Y-16015888D02*
X9582087Y-15958746D01*
X9582087Y-15958746D02*
X9591611Y-15939698D01*
X9591611Y-15939698D02*
X9601135Y-15930174D01*
X9601135Y-15930174D02*
X9620182Y-15920650D01*
X9620182Y-15920650D02*
X9658277Y-15920650D01*
X9658277Y-15920650D02*
X9677325Y-15930174D01*
X9753516Y-16130174D02*
X9763039Y-16120650D01*
X9763039Y-16120650D02*
X9782087Y-16092079D01*
X9782087Y-16092079D02*
X9791611Y-16073031D01*
X9791611Y-16073031D02*
X9801135Y-16044460D01*
X9801135Y-16044460D02*
X9810658Y-15996841D01*
X9810658Y-15996841D02*
X9810658Y-15958746D01*
X9810658Y-15958746D02*
X9801135Y-15911127D01*
X9801135Y-15911127D02*
X9791611Y-15882555D01*
X9791611Y-15882555D02*
X9782087Y-15863508D01*
X9782087Y-15863508D02*
X9763039Y-15834936D01*
X9763039Y-15834936D02*
X9753516Y-15825412D01*
M02*
